PathFileType	4	(X/Y/Z)	C:/Users/opensim2020/Desktop/walking_exp_matlab/subject02_walking10_straight_02.trc																																																																																																																															
DataRate	CameraRate	NumFrames	NumMarkers	Units	OrigDataRate	OrigDataStartFrame	OrigNumFrames																																																																																																																											
100	100	5	43	mm	100	1400	280																																																																																																																											
Frame#	Time	LFHD			RFHD			LBHD			RBHD			C7			T10			CLAV			STRN			RBAK			LSHO			LUPA			LELB			LFRM			LWRA			LWRB			LFIN			RSHO			RUPA			RELB			RFRM			RWRA			RWRB			RFIN			LASI			RASI			LPSI			RPSI			LTHI			LKNE			LTIB			LANK			LHEE			LTOE			RTHI			RKNE			RTIB			RANK			RHEE			RTOE			*39			*40			*41			*42		
		X1	Y1	Z1	X2	Y2	Z2	X3	Y3	Z3	X4	Y4	Z4	X5	Y5	Z5	X6	Y6	Z6	X7	Y7	Z7	X8	Y8	Z8	X9	Y9	Z9	X10	Y10	Z10	X11	Y11	Z11	X12	Y12	Z12	X13	Y13	Z13	X14	Y14	Z14	X15	Y15	Z15	X16	Y16	Z16	X17	Y17	Z17	X18	Y18	Z18	X19	Y19	Z19	X20	Y20	Z20	X21	Y21	Z21	X22	Y22	Z22	X23	Y23	Z23	X24	Y24	Z24	X25	Y25	Z25	X26	Y26	Z26	X27	Y27	Z27	X28	Y28	Z28	X29	Y29	Z29	X30	Y30	Z30	X31	Y31	Z31	X32	Y32	Z32	X33	Y33	Z33	X34	Y34	Z34	X35	Y35	Z35	X36	Y36	Z36	X37	Y37	Z37	X38	Y38	Z38	X39	Y39	Z39	X40	Y40	Z40	X41	Y41	Z41	X42	Y42	Z42	X43	Y43	Z43
																																																																																																																																		
1	0	-1060.00781	1763.06836	988.2243	-1067.35767	1741.08789	1131.35242	-1181.47192	1675.521	969.68488	-1200.35291	1650.42908	1109.84167	-1235.10181	1540.37378	1043.0343	-1293.42822	1266.00916	1053.07678	-1095.28271	1472.70251	1033.66736	-1047.32556	1299.37085	1050.17468	-1294.3573	1370.93274	1115.27405	-1160.3844	1511.97156	862.80573	-1191.54688	1311.14709	781.84912	-1207.8446	1171.50146	774.31384	-1207.07837	1038.72974	766.91504	-1165.16028	910.349	808.99701	-1205.98926	915.47888	769.66602	-1192.61597	849.79047	771.2124	-1152.11072	1513.77832	1229.36987	-1161.00671	1325.41833	1325.26489	-1132.86877	1181.16638	1347.9342	-1084.73743	1071.31323	1367.00708	-1016.5744	955.10004	1348.4281	-1060.47021	944.11749	1382.50806	-1011.18713	890.99152	1386.47998	-1054.86475	1003.98706	934.20306	-1071.35254	990.95776	1188.56677	-1268.72473	1046.5647	998.69318	-1280.88733	1047.7207	1113.64429	-1067.61877	696.2334	860.22144	-1051.24316	504.66849	880.7262	-1155.92212	345.52798	884.85956	-1214.2019	129.89273	908.75909	-1246.19299	107.00791	966.27332	-1083.05212	57.17463	872.10242	-1159.22693	683.30469	1240.42578	-1162.02612	473.56146	1194.59448	-1208.16028	289.73822	1190.21899	-1223.52368	97.81131	1145.62146	-1250.83826	44.17495	1085.44849	-1073.66321	43.00966	1178.81628	-1173.27234	1815.24316	1072.72131	-2845.90186	1034.19678	3356.88525	NaN	NaN	NaN	NaN	NaN	NaN
2	0.01	-1054.20166	1763.19226	989.27924	-1061.06641	1741.40149	1132.42822	-1175.43921	1675.4071	971.35577	-1193.98071	1650.5658	1111.54529	-1228.84692	1540.51685	1045.15259	-1287.63892	1266.3905	1055.23413	-1089.03223	1472.84924	1035.30688	-1041.24377	1299.427	1052.25562	-1287.91309	1371.40161	1117.8833	-1155.03882	1511.84338	864.7428	-1187.10205	1311.35889	783.93378	-1203.77478	1171.42065	776.42065	-1201.7406	1038.39197	769.94427	-1157.80396	911.008	812.34222	-1198.98962	915.22046	774.10242	-1184.38794	849.71393	775.79333	-1144.86267	1514.35461	1230.9491	-1151.97119	1326.36511	1327.88611	-1122.8302	1182.33984	1350.65369	-1073.73523	1072.70947	1369.43677	-1005.31738	956.83148	1349.64868	-1048.41296	945.69202	1384.58704	-998.75623	892.92377	1388.02417	-1049.11938	1004.27051	936.00452	-1067.01624	989.89417	1190.08545	-1263.18127	1046.97412	1000.0174	-1275.3938	1047.85071	1114.9364	-1060.48315	697.18787	861.88702	-1042.75024	504.5231	883.13452	-1141.1001	340.55969	887.35065	-1190.25183	122.86227	911.56506	-1220.68872	98.8445	968.9303	-1056.1416	54.88166	875.58813	-1155.95569	682.99292	1241.07458	-1159.99927	473.24506	1194.67017	-1206.98608	289.74252	1190.33008	-1223.27734	97.89916	1145.54224	-1250.41431	44.1124	1085.33081	-1073.68359	42.94771	1178.94873	-1167.33704	1815.31201	1074.07092	-2845.88794	1034.15759	3356.94531	NaN	NaN	NaN	NaN	NaN	NaN
3	0.02	-1048.2196	1763.08679	990.42688	-1054.7384	1741.66309	1133.37415	-1169.65356	1675.19031	972.78314	-1187.58167	1650.56873	1113.1178	-1222.64465	1540.55493	1047.21521	-1281.84106	1266.64575	1057.28894	-1082.81274	1472.86121	1036.91931	-1035.26453	1299.32849	1054.01477	-1281.50964	1371.75037	1120.38721	-1149.67383	1511.65735	866.61053	-1182.72742	1311.39856	786.05853	-1199.60583	1171.28821	778.43866	-1196.36157	1038.06616	773.0459	-1150.21692	911.60779	816.11377	-1192.43689	914.94159	777.89099	-1176.27869	849.69952	780.25482	-1137.67566	1514.76245	1232.50964	-1143.16882	1326.94177	1329.60669	-1112.86255	1183.26013	1352.99866	-1062.83557	1073.91858	1371.21973	-993.74677	958.67944	1351.15479	-1036.50745	947.21875	1386.53979	-986.41443	894.75165	1389.45972	-1043.35901	1004.27985	937.58044	-1061.17383	989.36591	1192.17896	-1257.5813	1047.21155	1001.30103	-1269.84436	1047.95337	1116.1615	-1053.31042	698.00427	863.69647	-1034.6283	504.22046	885.4162	-1126.16492	335.79489	889.19702	-1166.03479	116.24915	913.88318	-1196.20007	91.7546	971.37537	-1029.11572	52.91292	879.0108	-1152.51208	682.58661	1241.63464	-1157.96826	473.00916	1194.98804	-1205.87	289.77542	1190.4519	-1223.0802	97.98811	1145.42334	-1250.35242	44.22256	1085.16528	-1073.71436	42.90354	1179.06238	-1161.28503	1815.19385	1075.42688	-2846.09619	1034.06018	3356.84888	NaN	NaN	NaN	NaN	NaN	NaN
4	0.03	-1042.46814	1762.97852	991.19476	-1048.4093	1741.80212	1134.32129	-1163.81909	1674.87561	974.1875	-1181.21606	1650.52197	1114.68787	-1216.37427	1540.45227	1049.08862	-1275.98291	1266.81262	1059.21387	-1076.59753	1472.80725	1038.5293	-1029.13318	1298.87549	1055.78479	-1275.14197	1372.0011	1122.71008	-1144.19446	1511.33875	868.35339	-1178.05359	1311.30408	788.0766	-1194.97095	1170.95007	780.9588	-1190.59387	1037.49548	776.12085	-1142.70105	912.22498	819.32941	-1185.45215	914.44409	782.03027	-1167.95679	849.60468	784.26978	-1130.57996	1515.24646	1234.17627	-1134.54077	1327.62061	1332.02234	-1103.02881	1184.02563	1355.16687	-1052.05566	1075.13647	1373.08289	-982.41455	960.32227	1352.48718	-1024.69604	948.57159	1388.33826	-974.14954	896.48541	1390.66577	-1037.22437	1004.35889	938.66052	-1055.46741	988.70435	1193.86194	-1251.89319	1047.20947	1002.48706	-1264.25842	1047.95813	1117.38342	-1046.13757	698.68427	864.67499	-1026.71948	503.7464	887.58051	-1111.03894	331.1893	891.0965	-1141.32324	110.1337	915.85669	-1171.09326	84.89167	973.203	-1001.94379	51.9259	882.26123	-1149.07971	682.36768	1242.32739	-1155.88513	472.7612	1195.42004	-1204.81201	289.76309	1190.50562	-1222.76587	98.02615	1145.26086	-1250.30933	44.31908	1085.0094	-1073.88013	42.74853	1179.12646	-1155.23218	1815.05591	1076.51208	-2845.88525	1034.07495	3356.95313	NaN	NaN	NaN	NaN	NaN	NaN
5	0.04	-1036.72449	1762.90613	991.6803	-1042.02405	1741.84509	1135.00183	-1158.04199	1674.59644	975.40924	-1174.81616	1650.36462	1116.04236	-1210.1449	1540.26318	1050.85693	-1270.16528	1266.81714	1061.0376	-1070.37305	1472.64539	1039.9043	-1022.98981	1298.77014	1057.44153	-1268.72876	1372.09521	1124.83362	-1138.71375	1510.92493	869.94696	-1173.35657	1311.08069	790.0094	-1190.27832	1170.46521	782.90741	-1184.86157	1036.86743	779.38599	-1134.58142	912.72168	822.63373	-1177.94983	913.89746	786.38617	-1159.72192	849.50037	788.49579	-1123.53381	1515.53235	1235.776	-1126.06824	1328.16296	1334.19629	-1093.3429	1184.70911	1357.2821	-1041.41052	1076.27087	1375.05566	-970.96191	961.95483	1353.92786	-1013.04803	949.83539	1389.98364	-962.13025	898.13312	1391.9165	-1030.93018	1004.19415	939.52417	-1050.00916	988.06488	1195.21265	-1246.14795	1047.07141	1003.66241	-1258.55566	1047.87231	1118.50562	-1039.02234	699.12311	866.14594	-1019.1781	503.18723	889.48572	-1095.55518	326.86618	893.08936	-1117.073	104.90243	917.46918	-1145.69666	78.48957	974.60498	-974.66229	51.81219	885.13776	-1145.53198	681.98401	1242.70215	-1153.85449	472.50314	1195.52783	-1203.79114	289.80634	1190.521	-1222.66223	98.20462	1145.14978	-1250.24377	44.40848	1084.82471	-1073.90601	42.72303	1179.26892	-1149.20239	1814.89453	1077.63123	-2845.85718	1034.16284	3356.86719	NaN	NaN	NaN	NaN	NaN	NaN
